<?xml version="1.0" encoding="utf-8"?>
<!-- Generator: Adobe Illustrator 22.1.0, SVG Export Plug-In . SVG Version: 6.00 Build 0)  -->
<svg version="1.1" id="Layer_1" xmlns="http://www.w3.org/2000/svg" xmlns:xlink="http://www.w3.org/1999/xlink" x="0px" y="0px"
	 viewBox="0 0 100 100" style="enable-background:new 0 0 100 100;" xml:space="preserve">
<path d="M18.3,98.3c0,0.9,0.7,1.7,1.7,1.7h30c0.9,0,1.7-0.7,1.7-1.7v-45c0-5.7-2.9-11-7.7-14.1L41.8,10c0.9-0.1,1.5-0.8,1.5-1.7V1.7
	c0-0.9-0.7-1.7-1.7-1.7H28.3c-0.9,0-1.7,0.7-1.7,1.7v6.7c0,0.9,0.7,1.6,1.5,1.7L26,39.3c-4.8,3.1-7.7,8.4-7.7,14.1V98.3z M21.7,96.7
	V85h26.7v11.7H21.7z M21.7,81.7V58.3h26.7v23.3H21.7z M39.6,25h-9.1l1.1-15h6.9L39.6,25z M30,3.3h10v3.3H30V3.3z M28.4,41.7
	c0.5-0.3,0.8-0.8,0.8-1.3l0.9-12h9.6l0.9,12c0,0.6,0.4,1.1,0.8,1.3c4.2,2.4,6.8,6.8,6.8,11.6V55H21.7v-1.7
	C21.7,48.5,24.3,44.1,28.4,41.7L28.4,41.7z M60,73.3c-0.9,0-1.7,0.7-1.7,1.7c0,0.1,0,0.2,0,0.2l3.3,23.3c0.1,0.8,0.8,1.4,1.6,1.4
	h13.3c0.8,0,1.5-0.6,1.6-1.4l3.3-23.3c0.1-0.9-0.5-1.8-1.4-1.9c-0.1,0-0.2,0-0.2,0H60z M78.1,76.7L76.2,90H63.8l-1.9-13.3H78.1z
	 M64.8,96.7l-0.5-3.3h11.4l-0.5,3.3H64.8z"/>
</svg>
